<svg width="180.000000" height="58.175991" viewBox="0 0 180 58.176" fill="none" xmlns="http://www.w3.org/2000/svg" xmlns:xlink="http://www.w3.org/1999/xlink">
	<desc>
			Created with Pixso.
	</desc>
	<defs>
		<clipPath id="clip2_1668">
			<rect id="logo" rx="0.000000" width="179.755295" height="57.931263" transform="translate(0.122362 0.122362)" fill="white" fill-opacity="0"/>
		</clipPath>
	</defs>
	<rect id="logo" rx="0.000000" width="179.755295" height="57.931263" transform="translate(0.122362 0.122362)" fill="#FFFFFF" fill-opacity="0"/>
	<g clip-path="url(#clip2_1668)">
		<path id="Vector" d="M167.29 16.48L167 21.46L165.1 21.46L164.79 16.48L167.29 16.48Z" fill="#FAA24B" fill-opacity="1.000000" fill-rule="nonzero"/>
		<path id="Vector" d="M73.79 31.33C73.03 31.77 72.14 31.98 71.14 31.98C70.03 31.98 69.05 31.73 68.19 31.23C67.33 30.73 66.65 30.01 66.17 29.08C65.68 28.16 65.43 27.08 65.43 25.85C65.43 24.62 65.68 23.54 66.17 22.61C66.65 21.69 67.33 20.98 68.19 20.48C69.05 19.98 70.03 19.73 71.14 19.73C72.14 19.73 73.03 19.95 73.79 20.38C74.56 20.82 75.16 21.47 75.59 22.35L78.87 22.35C78.25 20.75 77.25 19.52 75.87 18.65C74.49 17.78 72.91 17.34 71.14 17.34C69.58 17.34 68.16 17.71 66.86 18.43C65.56 19.16 64.53 20.17 63.77 21.46C63.01 22.75 62.63 24.22 62.63 25.85C62.63 27.48 63.01 28.94 63.77 30.23C64.53 31.53 65.56 32.54 66.85 33.26C68.14 33.99 69.57 34.35 71.14 34.35C72.91 34.35 74.49 33.92 75.87 33.06C77.25 32.2 78.25 30.97 78.88 29.37L75.59 29.37C75.16 30.25 74.57 30.9 73.8 31.33L73.79 31.33Z" fill="#FAA24B" fill-opacity="1.000000" fill-rule="nonzero"/>
		<path id="Vector" d="M93.45 23.36C93 22.51 92.37 21.87 91.58 21.44C90.79 21.01 89.89 20.79 88.89 20.79C88.04 20.79 87.26 20.95 86.55 21.25C85.84 21.55 85.25 21.98 84.79 22.54L84.79 16.48L82.06 16.48L82.06 34.21L84.79 34.21L84.79 26.83C84.79 25.65 85.09 24.74 85.69 24.11C86.29 23.48 87.1 23.16 88.12 23.16C89.14 23.16 89.95 23.48 90.54 24.11C91.13 24.74 91.43 25.65 91.43 26.83L91.43 34.21L94.13 34.21L94.13 26.42C94.13 25.22 93.91 24.2 93.45 23.35L93.45 23.36Z" fill="#FAA24B" fill-opacity="1.000000" fill-rule="nonzero"/>
		<path id="Vector" d="M97.61 21.01L97.61 34.21L100.34 34.21L100.34 21.01L97.61 21.01ZM100.22 16.26C99.88 15.93 99.48 15.76 99 15.76C98.52 15.76 98.09 15.93 97.75 16.26C97.42 16.6 97.25 17.02 97.25 17.51C97.25 18 97.42 18.42 97.75 18.75C98.09 19.09 98.5 19.26 99 19.26C99.49 19.26 99.88 19.09 100.22 18.75C100.56 18.42 100.72 18.01 100.72 17.51C100.72 17.01 100.55 16.6 100.22 16.26Z" fill="#FAA24B" fill-opacity="1.000000" fill-rule="nonzero"/>
		<path id="Vector" d="M103.93 16.48L103.93 34.21L106.66 34.21L106.66 16.48L103.93 16.48Z" fill="#FAA24B" fill-opacity="1.000000" fill-rule="nonzero"/>
		<path id="Vector" d="M120.15 16.48L120.15 22.85C119.66 22.23 118.99 21.73 118.15 21.36C117.31 20.98 116.46 20.79 115.6 20.79C114.43 20.79 113.38 21.08 112.42 21.64C111.47 22.21 110.72 23 110.17 24.02C109.62 25.05 109.35 26.22 109.35 27.55C109.35 28.87 109.62 30.06 110.17 31.1C110.73 32.15 111.47 32.97 112.42 33.55C113.38 34.13 114.43 34.42 115.58 34.42C116.6 34.42 117.51 34.22 118.3 33.8C119.09 33.39 119.71 32.86 120.15 32.22L120.15 34.21L122.91 34.21L122.91 16.48L120.15 16.48ZM119.59 29.98C119.21 30.66 118.72 31.18 118.12 31.53C117.51 31.88 116.85 32.05 116.15 32.05C115.45 32.05 114.81 31.87 114.2 31.51C113.58 31.15 113.09 30.63 112.71 29.94C112.34 29.26 112.15 28.46 112.15 27.55C112.15 26.64 112.34 25.85 112.71 25.19C113.09 24.52 113.58 24.02 114.19 23.68C114.79 23.33 115.45 23.16 116.15 23.16C116.86 23.16 117.51 23.34 118.12 23.69C118.72 24.04 119.22 24.55 119.59 25.22C119.96 25.89 120.15 26.68 120.15 27.6C120.15 28.51 119.96 29.3 119.59 29.98L119.59 29.98Z" fill="#FAA24B" fill-opacity="1.000000" fill-rule="nonzero"/>
		<path id="Vector" d="M130.82 21.36C130.16 21.73 129.63 22.26 129.23 22.93L129.23 21.01L126.5 21.01L126.5 34.21L129.23 34.21L129.23 27.26C129.23 25.92 129.5 24.98 130.06 24.44C130.61 23.89 131.42 23.62 132.49 23.62L133.18 23.62L133.18 20.8C132.27 20.8 131.48 20.99 130.82 21.36L130.82 21.36Z" fill="#FAA24B" fill-opacity="1.000000" fill-rule="nonzero"/>
		<path id="Vector" d="M147.8 27.29C147.8 26.01 147.53 24.88 146.98 23.89C146.44 22.91 145.68 22.15 144.71 21.61C143.73 21.06 142.62 20.79 141.38 20.79C140.13 20.79 138.94 21.07 137.94 21.63C136.94 22.19 136.16 22.98 135.61 24.01C135.06 25.04 134.79 26.24 134.79 27.6C134.79 28.95 135.07 30.15 135.64 31.18C136.2 32.2 136.99 33 137.98 33.57C138.98 34.14 140.11 34.42 141.37 34.42C142.92 34.42 144.22 34.03 145.26 33.26C146.31 32.48 147.03 31.49 147.43 30.27L144.49 30.27C143.88 31.51 142.84 32.12 141.37 32.12C140.35 32.12 139.49 31.8 138.78 31.16C138.08 30.52 137.69 29.68 137.61 28.62L147.69 28.62C147.76 28.22 147.79 27.77 147.79 27.28L147.8 27.29ZM137.64 26.42C137.77 25.4 138.17 24.59 138.84 23.99C139.51 23.39 140.32 23.09 141.26 23.09C142.3 23.09 143.17 23.4 143.87 24C144.57 24.61 144.93 25.41 144.95 26.42L137.64 26.42Z" fill="#FAA24B" fill-opacity="1.000000" fill-rule="nonzero"/>
		<path id="Vector" d="M161.86 23.36C161.4 22.51 160.75 21.87 159.93 21.44C159.11 21.01 158.18 20.79 157.14 20.79C156.36 20.79 155.62 20.95 154.92 21.25C154.23 21.55 153.66 21.98 153.21 22.52L153.21 21.01L150.48 21.01L150.48 34.21L153.21 34.21L153.21 26.83C153.21 25.65 153.51 24.74 154.11 24.11C154.71 23.48 155.52 23.16 156.54 23.16C157.56 23.16 158.37 23.48 158.96 24.11C159.55 24.74 159.84 25.65 159.84 26.83L159.84 34.21L162.55 34.21L162.55 26.42C162.55 25.22 162.32 24.2 161.86 23.35L161.86 23.36Z" fill="#FAA24B" fill-opacity="1.000000" fill-rule="nonzero"/>
		<path id="Vector" d="M179.3 28.49C178.86 27.97 178.32 27.59 177.71 27.32C177.09 27.06 176.31 26.8 175.35 26.54C174.63 26.33 174.09 26.16 173.72 26.03C173.35 25.89 173.04 25.7 172.78 25.46C172.53 25.22 172.4 24.93 172.4 24.58C172.4 24.13 172.59 23.77 172.97 23.5C173.36 23.23 173.91 23.09 174.63 23.09C175.35 23.09 175.95 23.27 176.38 23.62C176.81 23.97 177.05 24.44 177.1 25.03L179.83 25.03C179.76 23.72 179.27 22.69 178.36 21.93C177.44 21.17 176.23 20.79 174.72 20.79C173.72 20.79 172.83 20.96 172.05 21.29C171.28 21.63 170.68 22.09 170.27 22.67C169.85 23.25 169.65 23.9 169.65 24.6C169.65 25.46 169.87 26.16 170.33 26.68C170.78 27.21 171.33 27.6 171.95 27.86C172.57 28.11 173.38 28.38 174.37 28.65C175.39 28.94 176.14 29.2 176.61 29.44C177.08 29.68 177.32 30.05 177.32 30.54C177.32 31 177.1 31.39 176.68 31.68C176.26 31.97 175.66 32.12 174.9 32.12C174.13 32.12 173.55 31.93 173.06 31.56C172.57 31.18 172.31 30.72 172.26 30.16L169.43 30.16C169.47 30.96 169.72 31.68 170.2 32.32C170.68 32.97 171.33 33.48 172.15 33.86C172.97 34.23 173.9 34.42 174.94 34.42C175.98 34.42 176.86 34.25 177.62 33.92C178.37 33.59 178.96 33.12 179.38 32.53C179.79 31.94 180 31.27 180 30.51C179.98 29.67 179.75 28.99 179.31 28.48L179.3 28.49Z" fill="#FAA24B" fill-opacity="1.000000" fill-rule="nonzero"/>
		<path id="Vector" d="M76.73 42.32C76 41.05 74.97 40.08 73.64 39.39C72.3 38.72 70.75 38.38 68.98 38.38L63.54 38.38L63.54 55.03L68.98 55.03C70.75 55.03 72.3 54.7 73.64 54.03C74.97 53.37 76 52.42 76.73 51.17C77.46 49.92 77.82 48.46 77.82 46.76C77.82 45.07 77.46 43.59 76.73 42.32ZM73.46 51.22C72.42 52.27 70.93 52.8 68.98 52.8L66.27 52.8L66.27 40.6L68.98 40.6C70.93 40.6 72.42 41.15 73.46 42.23C74.5 43.32 75.02 44.83 75.02 46.76C75.02 48.69 74.5 50.17 73.46 51.22Z" fill="#D94636" fill-opacity="1.000000" fill-rule="nonzero"/>
		<path id="Vector" d="M84.85 42.17C84.19 42.55 83.65 43.07 83.26 43.74L83.26 41.83L80.53 41.83L80.53 55.03L83.26 55.03L83.26 48.08C83.26 46.74 83.53 45.8 84.08 45.25C84.64 44.71 85.45 44.44 86.52 44.44L87.21 44.44L87.21 41.62C86.3 41.62 85.51 41.8 84.85 42.18L84.85 42.17Z" fill="#D94636" fill-opacity="1.000000" fill-rule="nonzero"/>
		<path id="Vector" d="M101.83 48.11C101.83 46.83 101.55 45.69 101.01 44.71C100.46 43.73 99.71 42.97 98.73 42.43C97.76 41.88 96.65 41.61 95.4 41.61C94.15 41.61 92.96 41.89 91.97 42.45C90.97 43.01 90.19 43.8 89.64 44.83C89.09 45.86 88.81 47.06 88.81 48.41C88.81 49.77 89.1 50.96 89.66 51.99C90.23 53.02 91.01 53.82 92.01 54.39C93.01 54.96 94.14 55.24 95.4 55.24C96.95 55.24 98.24 54.85 99.29 54.08C100.34 53.3 101.06 52.31 101.46 51.09L98.51 51.09C97.9 52.32 96.87 52.94 95.4 52.94C94.37 52.94 93.51 52.62 92.81 51.98C92.1 51.34 91.72 50.49 91.63 49.44L101.72 49.44C101.78 49.04 101.82 48.59 101.82 48.1L101.83 48.11ZM91.67 47.24C91.8 46.22 92.2 45.41 92.86 44.81C93.53 44.21 94.34 43.91 95.28 43.91C96.32 43.91 97.19 44.21 97.9 44.82C98.6 45.43 98.96 46.24 98.98 47.24L91.67 47.24L91.67 47.24Z" fill="#D94636" fill-opacity="1.000000" fill-rule="nonzero"/>
		<path id="Vector" d="M114.4 41.83L114.4 43.74C113.94 43.14 113.32 42.63 112.54 42.22C111.77 41.81 110.87 41.61 109.83 41.61C108.68 41.61 107.63 41.89 106.68 42.46C105.73 43.03 104.98 43.82 104.43 44.84C103.87 45.86 103.6 47.04 103.6 48.36C103.6 49.69 103.87 50.88 104.43 51.92C104.98 52.97 105.72 53.78 106.67 54.37C107.61 54.95 108.65 55.24 109.78 55.24C110.8 55.24 111.71 55.03 112.51 54.62C113.31 54.2 113.94 53.68 114.4 53.06L114.4 55.03L117.16 55.03L117.16 41.83L114.4 41.83L114.4 41.83ZM113.84 50.8C113.46 51.48 112.97 51.99 112.36 52.34C111.76 52.69 111.1 52.87 110.4 52.87C109.69 52.87 109.06 52.69 108.45 52.33C107.83 51.97 107.34 51.45 106.96 50.76C106.59 50.08 106.4 49.28 106.4 48.36C106.4 47.45 106.59 46.67 106.96 46.01C107.34 45.34 107.83 44.84 108.43 44.5C109.04 44.15 109.7 43.98 110.4 43.98C111.1 43.98 111.76 44.16 112.36 44.51C112.97 44.86 113.46 45.37 113.84 46.04C114.21 46.71 114.4 47.5 114.4 48.41C114.4 49.33 114.21 50.12 113.84 50.8L113.84 50.8Z" fill="#D94636" fill-opacity="1.000000" fill-rule="nonzero"/>
		<path id="Vector" d="M141.46 44.17C140.99 43.33 140.34 42.69 139.52 42.26C138.7 41.83 137.77 41.61 136.73 41.61C135.75 41.61 134.85 41.85 134 42.32C133.15 42.79 132.53 43.42 132.13 44.22C131.69 43.38 131.04 42.73 130.21 42.28C129.38 41.84 128.44 41.61 127.39 41.61C126.61 41.61 125.87 41.76 125.18 42.07C124.5 42.37 123.93 42.79 123.48 43.34L123.48 41.83L120.75 41.83L120.75 55.03L123.48 55.03L123.48 47.65C123.48 46.47 123.78 45.56 124.38 44.93C124.98 44.3 125.79 43.98 126.81 43.98C127.83 43.98 128.64 44.3 129.23 44.93C129.82 45.56 130.12 46.47 130.12 47.65L130.12 55.03L132.82 55.03L132.82 47.65C132.82 46.47 133.12 45.56 133.73 44.93C134.32 44.3 135.13 43.98 136.16 43.98C137.18 43.98 137.98 44.3 138.57 44.93C139.17 45.56 139.46 46.47 139.46 47.65L139.46 55.03L142.17 55.03L142.17 47.24C142.17 46.04 141.93 45.02 141.46 44.17Z" fill="#D94636" fill-opacity="1.000000" fill-rule="nonzero"/>
		<path id="Vector" d="M154.79 49.3C154.35 48.79 153.81 48.4 153.2 48.14C152.59 47.88 151.8 47.61 150.84 47.36C150.12 47.15 149.58 46.98 149.21 46.84C148.85 46.71 148.54 46.52 148.28 46.28C148.02 46.04 147.9 45.74 147.9 45.39C147.9 44.95 148.09 44.59 148.47 44.31C148.85 44.04 149.4 43.91 150.12 43.91C150.84 43.91 151.44 44.08 151.87 44.43C152.3 44.78 152.54 45.26 152.59 45.85L155.32 45.85C155.26 44.54 154.77 43.5 153.85 42.74C152.93 41.99 151.72 41.61 150.22 41.61C149.21 41.61 148.33 41.77 147.55 42.11C146.77 42.45 146.18 42.91 145.76 43.49C145.35 44.07 145.14 44.71 145.14 45.42C145.14 46.28 145.37 46.97 145.82 47.5C146.28 48.03 146.82 48.42 147.44 48.67C148.06 48.93 148.87 49.19 149.86 49.46C150.88 49.75 151.63 50.02 152.1 50.25C152.57 50.5 152.81 50.86 152.81 51.36C152.81 51.82 152.6 52.2 152.17 52.5C151.75 52.79 151.15 52.94 150.39 52.94C149.62 52.94 149.04 52.75 148.55 52.38C148.06 52 147.8 51.53 147.75 50.97L144.92 50.97C144.96 51.77 145.21 52.5 145.69 53.14C146.17 53.79 146.82 54.3 147.65 54.67C148.47 55.05 149.4 55.24 150.44 55.24C151.48 55.24 152.35 55.07 153.11 54.74C153.87 54.4 154.46 53.94 154.87 53.35C155.28 52.75 155.49 52.08 155.49 51.33C155.48 50.49 155.25 49.81 154.8 49.3L154.79 49.3Z" fill="#D94636" fill-opacity="1.000000" fill-rule="nonzero"/>
		<path id="Vector" d="M16.82 25.94C16.81 25.96 16.8 25.99 16.79 26.01L16.2 27.07C16.2 27.07 15.52 26.46 15.18 26.25C14.85 26.03 14.28 25.32 14.61 24.9C14.94 24.47 15.71 24.45 16.23 24.97C16.7 25.45 16.81 25.88 16.82 25.94L16.82 25.94Z" fill="#FAA24B" fill-opacity="1.000000" fill-rule="nonzero"/>
		<path id="Vector" d="M17.95 24.35C17.74 24.57 17.55 24.79 17.38 25.02L17.03 25.4L16.35 24.53C16.35 24.53 14.68 23.1 15.94 22.53C17.11 22 17.85 24.03 17.95 24.35L17.95 24.35Z" fill="#FAA24B" fill-opacity="1.000000" fill-rule="nonzero"/>
		<path id="Vector" d="M19.86 23.1C19.31 23.3 18.87 23.55 18.5 23.84C18.5 23.84 18.5 23.84 18.5 23.85L18.42 23.89C18.42 23.89 18.04 23.24 17.44 22.54C16.84 21.83 16.79 21.1 17.34 20.72C18.78 19.71 19.77 22.79 19.86 23.1L19.86 23.1Z" fill="#FAA24B" fill-opacity="1.000000" fill-rule="nonzero"/>
		<path id="Vector" d="M23.28 22.34C22.7 22.16 22.13 22.36 21.38 22.62C21.19 22.68 20.99 22.75 20.77 22.82C19.67 21.87 18.95 19.65 20.45 19.06C22.09 18.41 23 20.6 22.99 21.06C22.99 21.39 23.17 22.02 23.28 22.34Z" fill="#FAA24B" fill-opacity="1.000000" fill-rule="nonzero"/>
		<path id="Vector" d="M15.86 28.67C16.09 28.52 16.03 28.11 16.12 27.58C15.98 27.35 15.77 27.08 15.4 26.94C14.68 26.67 14.18 27.16 14.5 27.77C14.72 28.2 15.22 28.66 15.86 28.68L15.86 28.67Z" fill="#FAA24B" fill-opacity="1.000000" fill-rule="nonzero"/>
		<path id="Vector" d="M30.27 35.9C30.31 36.53 30.08 37.09 29.59 37.57C28.14 38.99 27.02 38.29 25.48 37.33C25.12 37.1 24.74 36.86 24.34 36.64C21.56 35.13 18.8 32.43 17.3 30.41C16.59 29.46 16.43 28.21 16.86 27.09C17.15 26.35 17.4 25.82 17.59 25.55C18.19 24.71 18.9 23.86 20.41 23.43C20.84 23.31 21.21 23.19 21.54 23.07C22.38 22.78 22.84 22.63 23.33 22.89C24.01 23.24 25.04 25.45 24.94 26.68C24.87 27.64 24.95 30.06 27.31 31.82C27.98 32.32 30.15 34.08 30.27 35.89L30.27 35.9Z" fill="#FAA24B" fill-opacity="1.000000" fill-rule="nonzero"/>
		<path id="Vector" d="M33.25 5.19C30.14 6.2 29.38 7.02 28.45 10.39C27.52 7.02 26.77 6.2 23.66 5.19C26.77 4.18 27.52 3.37 28.45 0C29.38 3.37 30.14 4.18 33.25 5.19Z" fill="#FAA24B" fill-opacity="1.000000" fill-rule="nonzero"/>
		<path id="Vector" d="M29.38 56.42C29.47 56.66 29.55 56.95 29.68 57.2C30.25 58.3 31.46 58.51 32.28 57.59C32.86 56.94 34.1 55.15 34.6 54.43C34.57 54.4 33.75 55.4 33.71 55.37C33.07 56.07 32.44 56.77 31.78 57.49C31.6 57.69 31.26 57.56 31.27 57.29C31.27 57.16 31.31 57.03 31.38 56.92C31.55 56.63 31.75 56.34 31.99 56.11C33.4 54.75 34.79 53.36 36.27 52.07C38.7 49.96 41.21 47.93 43.67 45.84C46.52 43.41 49.36 40.96 52.19 38.5C52.91 37.87 53.51 37.12 54 36.32C52.85 37.12 51.65 37.89 50.52 38.75C49.87 39.25 49.33 39.9 48.74 40.48C47.65 41.57 46.34 42.37 45.1 43.26C42.68 45 40.25 46.73 37.85 48.49C36.02 49.83 34.34 51.33 32.93 53.11C32.69 53.41 32.43 53.7 32.16 53.97C32.08 54.05 31.89 54.16 31.85 54.13C31.74 54.04 31.63 53.89 31.63 53.76C31.63 53.56 31.68 53.33 31.79 53.17C32.22 52.54 32.64 51.91 33.13 51.34C34.66 49.56 36.45 48.08 38.42 46.83C42.07 44.49 45.45 41.8 48.74 39C49.71 38.18 50.76 37.48 51.88 36.89C53.63 35.99 54.66 34.53 55.08 32.64C55.63 30.16 56.21 27.67 56.64 25.17C57.22 21.82 56.88 18.57 55.3 15.52C54.16 13.32 52.51 11.58 50.44 10.24C48.16 8.75 45.66 7.93 42.93 7.82C42.18 7.79 41.42 7.91 40.66 7.95C39.51 8 38.35 8.03 37.2 8.09C36.76 8.11 36.31 8.16 35.88 8.25C34.93 8.45 34.22 8.99 33.84 9.9C33.67 10.31 33.5 10.72 33.4 11.15C32.96 12.98 32.04 14.52 30.7 15.81C30.62 15.9 30.54 15.99 30.47 16.07C30.42 16.13 30.39 16.19 30.32 16.28C30.75 16.75 31.28 17.01 31.9 17.06C32.82 17.13 33.6 16.78 34.33 16.28C35.14 15.72 35.85 15.05 36.4 14.21C36.88 13.48 36.91 13.11 36.52 12.24C36.67 12.36 36.77 12.43 36.87 12.51C37.57 13.06 38.4 13.27 39.26 13.34C40.36 13.42 41.47 13.47 42.58 13.55C43.05 13.59 43.52 13.68 43.98 13.82C43.51 13.86 43.03 13.89 42.56 13.94C41.84 14.02 41.12 14.16 40.4 14.2C39.69 14.23 38.97 14.17 38.27 14.16C38.26 14.18 38.27 14.32 38.21 14.4C37.05 16.1 35.5 17.31 33.5 17.83C32.12 18.19 31.09 17.82 30.14 16.77C29.97 17.17 30.07 17.61 30.42 17.93C31.04 18.48 31.78 18.65 32.58 18.56C35.03 18.3 36.95 17.1 38.44 15.18C38.62 14.94 38.79 14.88 39.08 14.91C42.75 15.25 45.36 18.21 45.63 21.94C45.75 23.54 45.48 25.08 45 26.6C44.97 26.67 44.95 26.75 44.95 26.83C45.67 25.6 46.24 24.32 46.47 22.91C46.75 21.14 46.47 19.49 45.55 17.95C44.72 16.58 43.51 15.66 42.07 15.01C41.63 14.82 41.2 14.64 40.7 14.42C42.98 14.21 44.99 14.6 46.63 16.23C45.86 15.93 45.1 15.62 44.33 15.32L44.28 15.43C47.05 17.34 48.18 19.84 47.06 23.17C47.11 23.17 47.16 23.17 47.21 23.17C47.43 22.35 47.65 21.53 47.87 20.7C47.89 20.7 47.9 20.69 47.92 20.69C47.89 21.19 47.89 21.69 47.82 22.18C47.63 23.58 46.99 24.81 46.27 25.99C45 28.11 43.6 30.16 42.07 32.1C41.24 33.15 40.11 33.87 39.08 34.68C38.77 34.92 38.47 35.15 38.14 35.4L37.46 35.87C37.42 35.9 37.37 35.93 37.33 35.97C36.11 37.02 34.86 38.04 33.67 39.12C32.85 39.87 32.02 40.65 31.32 41.52C30.31 42.77 29.73 44.22 29.72 45.86C29.73 46.44 29.86 46.97 30.2 47.45C30.82 48.33 31.79 48.49 32.57 47.75C33.16 47.18 33.72 46.54 34.18 45.86C35.45 43.97 37.04 42.4 38.87 41.04C39.39 40.65 39.92 40.26 40.45 39.88C40.55 39.81 40.62 39.73 40.66 39.63L41.07 39.23C41.46 38.87 41.82 38.53 42.18 38.19C44.09 36.43 46.18 34.9 48.4 33.54C49.46 32.89 50.49 32.2 51.23 31.17C52.36 29.59 52.69 27.81 52.51 25.91C52.48 25.55 52.41 25.19 52.35 24.82C52.39 24.82 52.43 24.81 52.47 24.8C52.64 25.63 52.86 26.45 52.96 27.29C53.14 28.85 52.99 30.37 52.29 31.8C51.81 32.78 51.12 33.57 50.3 34.27C48.74 35.61 47.22 36.99 45.6 38.26C44.53 39.09 43.34 39.78 42.18 40.5C41.11 41.17 39.98 41.74 38.93 42.45C37.16 43.65 35.81 45.28 34.53 46.97C34.12 47.52 33.65 48.04 33.14 48.49C32.47 49.07 31.66 49.21 30.81 48.93C30.61 48.86 30.53 48.93 30.42 49.09C27.67 53.06 29.37 56.41 29.37 56.41L29.38 56.42Z" fill="#D94636" fill-opacity="1.000000" fill-rule="nonzero"/>
		<path id="Vector" d="M26.47 49.09C26.36 48.93 26.28 48.87 26.08 48.93C25.23 49.22 24.42 49.07 23.75 48.49C23.24 48.04 22.77 47.53 22.36 46.98C21.08 45.28 19.73 43.65 17.96 42.45C16.92 41.75 15.78 41.17 14.71 40.51C13.55 39.79 12.36 39.1 11.29 38.26C9.68 37 8.15 35.61 6.59 34.27C5.78 33.58 5.09 32.78 4.61 31.81C3.9 30.37 3.75 28.85 3.93 27.3C4.03 26.46 4.25 25.63 4.42 24.81C4.46 24.81 4.5 24.82 4.54 24.83C4.49 25.19 4.41 25.55 4.38 25.92C4.2 27.82 4.53 29.59 5.67 31.17C6.4 32.21 7.43 32.9 8.49 33.54C10.71 34.91 12.8 36.43 14.71 38.2C15.07 38.53 15.44 38.87 15.82 39.23L16.23 39.64C16.27 39.74 16.34 39.82 16.45 39.89C16.98 40.27 17.5 40.66 18.02 41.05C19.85 42.41 21.44 43.98 22.72 45.87C23.18 46.55 23.73 47.19 24.32 47.76C25.1 48.5 26.07 48.34 26.69 47.46C27.03 46.98 27.16 46.45 27.17 45.87C27.17 44.23 26.58 42.77 25.57 41.52C24.87 40.66 24.04 39.88 23.22 39.13C22.03 38.05 20.78 37.02 19.56 35.97C19.52 35.94 19.47 35.91 19.43 35.88L18.75 35.41C18.42 35.15 18.12 34.92 17.82 34.69C16.78 33.87 15.65 33.16 14.83 32.11C13.29 30.16 11.9 28.12 10.62 25.99C9.9 24.81 9.26 23.59 9.07 22.19C9 21.7 9 21.19 8.97 20.7C8.99 20.7 9 20.71 9.02 20.71C9.24 21.53 9.46 22.36 9.68 23.18C9.73 23.18 9.78 23.18 9.83 23.17C8.71 19.85 9.85 17.34 12.61 15.43L12.56 15.33C11.79 15.63 11.03 15.93 10.26 16.23C11.9 14.61 13.92 14.21 16.19 14.43C15.69 14.64 15.25 14.82 14.82 15.02C13.38 15.66 12.17 16.59 11.35 17.96C10.42 19.49 10.14 21.14 10.42 22.91C10.65 24.33 11.22 25.61 11.94 26.83C11.94 26.75 11.92 26.68 11.9 26.6C11.41 25.09 11.14 23.55 11.26 21.95C11.53 18.22 14.14 15.26 17.81 14.92C18.1 14.89 18.27 14.95 18.45 15.18C19.94 17.11 21.86 18.31 24.31 18.57C25.11 18.65 25.86 18.48 26.47 17.93C26.82 17.61 26.92 17.17 26.75 16.77C25.8 17.83 24.77 18.2 23.39 17.84C21.39 17.31 19.84 16.1 18.68 14.41C18.62 14.32 18.63 14.19 18.63 14.16C17.93 14.18 17.2 14.24 16.49 14.2C15.77 14.16 15.05 14.03 14.33 13.95C13.86 13.9 13.38 13.86 12.91 13.82C13.37 13.68 13.84 13.59 14.31 13.56C15.42 13.47 16.53 13.43 17.63 13.34C18.49 13.27 19.32 13.06 20.02 12.52C20.12 12.44 20.22 12.36 20.38 12.25C19.98 13.12 20.01 13.48 20.5 14.22C21.04 15.05 21.75 15.73 22.56 16.29C23.29 16.79 24.08 17.14 24.99 17.06C25.62 17.01 26.14 16.76 26.57 16.29C26.5 16.19 26.47 16.13 26.43 16.08C26.35 15.99 26.27 15.9 26.19 15.82C24.85 14.52 23.93 12.98 23.49 11.15C23.39 10.73 23.22 10.31 23.05 9.9C22.67 9 21.96 8.45 21.01 8.26C20.58 8.17 20.13 8.12 19.69 8.1C18.54 8.04 17.38 8.01 16.23 7.95C15.47 7.92 14.71 7.8 13.96 7.83C11.24 7.93 8.73 8.76 6.45 10.24C4.38 11.58 2.73 13.32 1.59 15.52C0.02 18.57 -0.32 21.82 0.26 25.17C0.69 27.67 1.27 30.16 1.83 32.64C2.25 34.53 3.28 35.99 5.02 36.89C6.15 37.48 7.19 38.18 8.16 39C11.46 41.79 14.83 44.49 18.48 46.83C20.45 48.08 22.25 49.56 23.77 51.34C24.27 51.91 24.69 52.54 25.12 53.17C25.23 53.33 25.27 53.56 25.27 53.76C25.27 53.89 25.16 54.04 25.05 54.13C25.01 54.16 24.82 54.05 24.74 53.97C24.47 53.7 24.21 53.41 23.97 53.11C22.56 51.33 20.88 49.83 19.06 48.49C16.66 46.73 14.23 45 11.81 43.26C10.57 42.37 9.26 41.57 8.16 40.48C7.58 39.9 7.04 39.25 6.38 38.75C5.25 37.89 4.06 37.12 2.9 36.32C3.39 37.12 3.99 37.87 4.72 38.5C7.55 40.96 10.38 43.41 13.24 45.84C15.69 47.93 18.2 49.96 20.64 52.07C22.11 53.36 23.5 54.75 24.92 56.11C25.16 56.34 25.35 56.63 25.52 56.92C25.59 57.03 25.63 57.16 25.63 57.29C25.64 57.56 25.3 57.69 25.12 57.49C24.46 56.77 23.83 56.07 23.19 55.37C23.16 55.4 22.33 54.41 22.3 54.43C22.81 55.15 24.04 56.94 24.62 57.59C25.44 58.51 26.66 58.3 27.22 57.2C27.36 56.95 27.43 56.66 27.52 56.42C27.52 56.42 29.22 53.06 26.47 49.09Z" fill="#D94636" fill-opacity="1.000000" fill-rule="nonzero"/>
		<path id="Vector" d="M30.27 28.6C30.09 28.73 29.9 28.85 29.71 28.96C29.61 29.02 29.52 29.09 29.44 29.17C28.98 29 28.58 28.43 28.43 28.02C28.43 28.02 26.24 25.59 27.71 24.93C29.42 24.16 29.93 27.68 29.93 27.68C29.93 27.68 29.93 27.68 29.93 27.68C30.07 27.94 30.24 28.3 30.27 28.6L30.27 28.6Z" fill="#FAA24B" fill-opacity="1.000000" fill-rule="nonzero"/>
		<path id="Vector" d="M37.11 22.18C37.11 22.18 36.84 24.79 35.89 25.4C35.73 25.32 35.58 25.26 35.43 25.2C35.29 25.15 35.11 25.1 34.91 25.07C34.66 24.08 35.69 21.81 35.69 21.81C35.69 21.81 35.66 19.36 37.07 19.81C38.47 20.26 37.11 22.18 37.11 22.18Z" fill="#FAA24B" fill-opacity="1.000000" fill-rule="nonzero"/>
		<path id="Vector" d="M33.9 22.68C33.99 23.39 34.04 24.4 33.67 24.96L33.66 24.96C33.37 24.96 32.96 24.98 32.69 25.08C32.62 25.1 32.55 25.14 32.49 25.18C32.1 24.67 32.16 23.36 32.24 22.51C32.29 22.04 32.28 21.57 32.23 21.1C32.14 20.41 32.19 19.4 33.16 19.45C34.08 19.5 34.08 20.42 33.95 21.1C33.85 21.62 33.83 22.15 33.89 22.68L33.9 22.68Z" fill="#FAA24B" fill-opacity="1.000000" fill-rule="nonzero"/>
		<path id="Vector" d="M39.43 23.85C39.43 23.85 38.79 26.53 37.7 26.56L37.13 26.1C36.98 25.21 38.19 23.33 38.19 23.33C38.19 23.33 38.43 21.18 39.65 21.78C40.86 22.37 39.43 23.86 39.43 23.86L39.43 23.85Z" fill="#FAA24B" fill-opacity="1.000000" fill-rule="nonzero"/>
		<path id="Vector" d="M41.29 26.71C41.29 26.71 39.81 28.6 39.04 28.29C38.94 28.07 38.82 27.86 38.69 27.66C38.77 26.82 40.3 25.78 40.3 25.78C40.3 25.78 41.2 24.19 42.01 25.02C42.82 25.86 41.29 26.71 41.29 26.71L41.29 26.71Z" fill="#FAA24B" fill-opacity="1.000000" fill-rule="nonzero"/>
		<path id="Vector" d="M38.71 30.61C38.65 30.73 38.6 30.86 38.53 30.99C38.46 31.11 38.39 31.24 38.31 31.37C38.24 31.5 38.15 31.63 38.07 31.76C37.98 31.89 37.89 32.01 37.8 32.13C37.71 32.26 37.61 32.38 37.51 32.49C37.36 32.67 37.21 32.84 37.05 32.99C36.43 33.62 35.75 34.04 35.21 34.04C35.14 34.04 35.06 34.04 34.99 34.02C33.5 33.66 33.76 33.22 32.54 33.22L32.46 33.22C31.93 33.22 31.51 33.03 31.14 32.72C31.09 32.68 31.04 32.63 31 32.59C30.88 32.48 30.78 32.36 30.68 32.24C30.63 32.19 30.59 32.13 30.55 32.08C30.3 31.74 30.07 31.36 29.87 31.01C29.83 30.94 29.8 30.88 29.76 30.81C29.69 30.7 29.63 30.59 29.56 30.48C29.31 30.06 29.45 29.5 29.88 29.24C29.92 29.21 29.97 29.18 30.02 29.15C30.05 29.14 30.08 29.12 30.11 29.11C31.11 28.47 31.89 27.77 32.19 26.66C32.19 26.66 32.3 25.58 32.79 25.39C32.8 25.39 32.8 25.39 32.8 25.39C32.93 25.35 33.1 25.32 33.3 25.31C33.41 25.3 33.54 25.3 33.67 25.3C33.89 25.3 34.13 25.31 34.35 25.33C34.43 25.34 34.51 25.34 34.58 25.35C34.62 25.36 34.65 25.36 34.69 25.37C34.76 25.38 34.83 25.39 34.9 25.4C34.96 25.42 35.02 25.43 35.08 25.44C35.14 25.46 35.2 25.47 35.25 25.49C35.27 25.5 35.29 25.51 35.31 25.51C37.01 26.15 38.58 27.44 38.98 29.12C38.99 29.16 39 29.21 39 29.26C39.04 29.63 38.93 30.1 38.71 30.61L38.71 30.61Z" fill="#FAA24B" fill-opacity="1.000000" fill-rule="nonzero"/>
		<path id="Vector" d="M37.51 32.49C37.36 32.67 37.21 32.84 37.05 32.99C37.21 32.84 37.36 32.67 37.51 32.49Z" fill="#FAA24B" fill-opacity="1.000000" fill-rule="nonzero"/>
		<path id="Vector" d="M37.05 32.99C37.21 32.84 37.36 32.67 37.51 32.49C37.36 32.67 37.21 32.84 37.05 32.99Z" fill="#FFFFFF" fill-opacity="1.000000" fill-rule="nonzero"/>
	</g>
</svg>
