<svg width="60.000000" height="42.000000" viewBox="0 0 60 42" fill="none" xmlns="http://www.w3.org/2000/svg" xmlns:xlink="http://www.w3.org/1999/xlink">
	<desc>
			Created with Pixso.
	</desc>
	<defs/>
	<path id="Vector" d="M12 0C13.87 0 15.56 1.03 16.5 2.62C17.43 4.31 17.43 6.28 16.5 7.87C15.56 9.56 13.87 10.5 12 10.5C10.03 10.5 8.34 9.56 7.4 7.87C6.46 6.28 6.46 4.31 7.4 2.62C8.34 1.03 10.03 0 12 0ZM4.96 22.87L6 24.46L6 20.25L4.96 22.87ZM0 23.25L3.75 13.5L19.87 13.5L19.87 13.59L13.87 24.09L12.93 25.68L14.06 27.28L18 32.81L18 39L6 39L6 33L0 23.25ZM42 32.81L45.93 27.28L47.06 25.68L46.03 24.09L40.03 13.59L40.03 13.5L56.25 13.5L60 23.25L54 33L54 39L42 39L42 32.81ZM48 0C49.87 0 51.56 1.03 52.5 2.62C53.43 4.31 53.43 6.28 52.5 7.87C51.56 9.56 49.87 10.5 48 10.5C46.03 10.5 44.34 9.56 43.4 7.87C42.46 6.28 42.46 4.31 43.4 2.62C44.34 1.03 46.03 0 48 0ZM54.93 22.87L54 20.25L54 24.46L54.93 22.87ZM30 0C32.06 0 34.03 1.21 35.15 3C36.18 4.87 36.18 7.21 35.15 9C34.03 10.87 32.06 12 30 12C27.84 12 25.87 10.87 24.75 9C23.71 7.21 23.71 4.87 24.75 3C25.87 1.21 27.84 0 30 0ZM21.75 25.31L24 28.31L24 21.46L21.75 25.31ZM36 21.46L36 28.31L38.15 25.31L36 21.46ZM43.5 25.5L36 36L36 42L24 42L24 36L16.5 25.5L22.5 15L37.5 15L43.5 25.5Z" fill="#D94636" fill-opacity="1.000000" fill-rule="nonzero"/>
</svg>
