<svg width="48.000000" height="48.000000" viewBox="0 0 48 48" fill="none" xmlns="http://www.w3.org/2000/svg" xmlns:xlink="http://www.w3.org/1999/xlink">
	<desc>
			Created with Pixso.
	</desc>
	<defs/>
	<path id="Vector" d="M42.56 17.95C40.03 10.17 32.62 4.45 24 4.45C21.84 4.45 19.87 4.82 18 5.39L18 14.95L21 14.95L24 11.95L33 11.95L27 17.95L18.75 17.95L15 21.7L15 29.95L24 29.95L24 38.95L28.5 38.95L33 34.45L33 29.95L36 29.95L36 23.95L33 20.95L33 17.95L42.56 17.95ZM0 23.95C0 15.42 4.5 7.54 12 3.23C19.4 -1.08 28.5 -1.08 36 3.23C43.4 7.54 48 15.42 48 23.95C48 32.57 43.4 40.45 36 44.76C28.5 49.07 19.4 49.07 12 44.76C4.5 40.45 0 32.57 0 23.95Z" fill="#D94636" fill-opacity="1.000000" fill-rule="nonzero"/>
</svg>
