<svg width="24.500000" height="24.500000" viewBox="0 0 24.5 24.5" fill="none" xmlns="http://www.w3.org/2000/svg" xmlns:xlink="http://www.w3.org/1999/xlink">
	<desc>
			Created with Pixso.
	</desc>
	<defs/>
	<path id="Vector" d="M24.41 17.3C24.52 15.28 24.52 9.21 24.41 7.19C24.3 5.22 23.87 3.47 22.44 2.05C21.02 0.62 19.27 0.19 17.3 0.08C15.28 -0.03 9.21 -0.03 7.19 0.08C5.22 0.19 3.52 0.62 2.05 2.05C0.62 3.47 0.19 5.22 0.08 7.19C-0.03 9.21 -0.03 15.28 0.08 17.3C0.19 19.27 0.62 20.97 2.05 22.44C3.52 23.87 5.22 24.3 7.19 24.41C9.21 24.52 15.28 24.52 17.3 24.41C19.27 24.3 21.02 23.87 22.44 22.44C23.87 20.97 24.3 19.27 24.41 17.3ZM22.29 13.15C22.31 15.12 22.35 18.09 21.79 19.44C21.41 20.53 20.53 21.35 19.49 21.79C18.1 22.35 15.12 22.31 13.18 22.29C12.84 22.28 12.53 22.28 12.27 22.28C12 22.28 11.68 22.28 11.34 22.29C9.37 22.31 6.4 22.35 5.05 21.79C3.96 21.35 3.14 20.53 2.7 19.44C2.14 18.09 2.18 15.12 2.2 13.15C2.21 12.81 2.21 12.49 2.21 12.22C2.21 11.96 2.21 11.65 2.2 11.31C2.18 9.37 2.14 6.39 2.7 5C3.14 3.96 3.96 3.14 5.05 2.7C6.4 2.14 9.37 2.18 11.34 2.2C11.68 2.21 12 2.21 12.27 2.21C12.53 2.21 12.84 2.21 13.18 2.2C15.12 2.18 18.1 2.14 19.49 2.7C20.53 3.08 21.35 3.96 21.79 5C22.35 6.39 22.31 9.37 22.29 11.31C22.28 11.65 22.28 11.96 22.28 12.22C22.28 12.49 22.28 12.81 22.29 13.15ZM18.78 4.23C19.6 4.23 20.26 4.89 20.26 5.71C20.26 6.53 19.6 7.19 18.78 7.19C17.96 7.19 17.3 6.53 17.3 5.71C17.3 4.89 17.96 4.23 18.78 4.23ZM18.56 12.22C18.56 8.77 15.72 5.93 12.27 5.93C8.77 5.93 5.98 8.77 5.98 12.22C5.98 15.72 8.77 18.51 12.27 18.51C15.72 18.51 18.56 15.72 18.56 12.22ZM16.32 12.22C16.32 14.51 14.51 16.32 12.27 16.32C10.03 16.32 8.17 14.51 8.17 12.22C8.17 9.98 9.98 8.17 12.27 8.17C14.51 8.17 16.32 9.98 16.32 12.22Z" fill="#0F1F26" fill-opacity="1.000000" fill-rule="evenodd"/>
</svg>
