<svg width="24.000000" height="17.142883" viewBox="0 0 24 17.1429" fill="none" xmlns="http://www.w3.org/2000/svg" xmlns:xlink="http://www.w3.org/1999/xlink">
	<desc>
			Created with Pixso.
	</desc>
	<defs/>
	<path id="Vector" d="M0 6.42C0 2.89 2.83 0 6.42 0L8.57 0L8.57 3.42L6.42 3.42C4.76 3.42 3.42 4.82 3.42 6.42L3.42 6.85L10.28 6.85L10.28 17.14L0 17.14L0 6.42ZM13.71 6.42C13.71 2.89 16.55 0 20.14 0L22.28 0L22.28 3.42L20.14 3.42C18.48 3.42 17.14 4.82 17.14 6.42L17.14 6.85L24 6.85L24 17.14L13.71 17.14L13.71 6.42Z" fill="#FAA24B" fill-opacity="1.000000" fill-rule="evenodd"/>
</svg>
