<svg width="27.945312" height="22.695312" viewBox="0 0 27.9453 22.6953" fill="none" xmlns="http://www.w3.org/2000/svg" xmlns:xlink="http://www.w3.org/1999/xlink">
	<desc>
			Created with Pixso.
	</desc>
	<defs/>
	<path id="Vector" d="M25.1 6.39L25.1 5.63C26.19 4.81 27.17 3.82 27.94 2.67C26.96 3.11 25.81 3.44 24.66 3.55C25.86 2.84 26.74 1.75 27.17 0.38C26.08 1.03 24.82 1.53 23.57 1.8C22.47 0.65 21 0 19.35 0C16.18 0 13.61 2.57 13.61 5.74Q13.61 6.39 13.78 7.05C9.02 6.78 4.75 4.48 1.91 1.03C1.42 1.85 1.14 2.84 1.14 3.93C1.14 5.9 2.13 7.65 3.71 8.69C2.78 8.64 1.85 8.42 1.09 7.98L1.09 8.03C1.09 10.82 3.06 13.12 5.68 13.67C5.25 13.78 4.7 13.89 4.21 13.89C3.82 13.89 3.5 13.83 3.11 13.78C3.82 16.07 5.96 17.71 8.47 17.77C6.5 19.3 4.04 20.23 1.36 20.23C0.87 20.23 0.43 20.17 0 20.12C2.51 21.76 5.52 22.69 8.8 22.69C19.35 22.69 25.1 14 25.1 6.39Z" fill="#0F1F26" fill-opacity="1.000000" fill-rule="evenodd"/>
</svg>
